<?xml version="1.0" encoding="utf-8"?>
<svg xmlns="http://www.w3.org/2000/svg" style="margin: auto; background: none; display: block; shape-rendering: auto;" width="280" height="77" preserveAspectRatio="xMidYMid">
<style type="text/css">
  text {
    text-anchor: middle; font-size: 37px; opacity: 0;
  }
</style>
<g style="transform-origin: 140px 38.5px; transform: scale(0.948718);">
<g transform="translate(140,38.5)">
  <g transform="translate(0,0)"><g class="path" style="transform: scale(0.91); transform-origin: -119.675px -0.457027px; animation: 1s linear -0.63s infinite normal forwards running breath-9bd3241e-d489-466a-a232-c5ba8dedf28b;"><path d="M8.37-7.10L8.37-7.10L8.37-7.10Q7.29-7.92 6.47-9.59L6.47-9.59L6.47-9.59Q5.66-11.27 5.66-13.38L5.66-13.38L5.66-13.38Q5.66-15.48 6.32-17.28L6.32-17.28L6.32-17.28Q6.98-19.07 8.29-20.53L8.29-20.53L8.29-20.53Q9.59-22.00 11.78-22.87L11.78-22.87L11.78-22.87Q13.96-23.75 16.42-23.75L16.42-23.75L16.42-23.75Q18.88-23.75 20.86-23.38L20.86-23.38L20.86-23.38Q22.85-23.01 23.98-22.60L23.98-22.60L23.98-22.60Q25.12-22.19 25.99-21.82L25.99-21.82L25.99-21.82Q26.87-21.45 27.42-21.24L27.42-21.24L27.42-21.24Q27.96-21.02 28.08-20.98L28.08-20.98L28.08-20.98Q28.20-20.94 28.70-20.75L28.70-20.75L28.70-20.75Q29.21-20.55 29.39-20.51L29.39-20.51L29.39-20.51Q29.56-20.48 30.01-20.32L30.01-20.32L30.01-20.32Q30.46-20.16 30.71-20.12L30.71-20.12L30.71-20.12Q30.97-20.09 31.39-19.99L31.39-19.99L31.39-19.99Q31.82-19.89 32.14-19.87L32.14-19.87L32.14-19.87Q32.45-19.85 32.88-19.81L32.88-19.81L32.88-19.81Q33.31-19.77 33.70-19.77L33.70-19.77L33.70-19.77Q35.61-19.77 37.03-20.42L37.03-20.42L37.03-20.42Q38.45-21.06 39.10-21.84L39.10-21.84L39.10-21.84Q39.74-22.62 40.13-23.63L40.13-23.63L40.13-23.63Q40.60-24.88 40.60-25.90L40.60-25.90L41.46-25.90L41.46-25.90Q41.46-24.96 40.97-23.61L40.97-23.61L40.97-23.61Q40.48-22.27 39.76-21.35L39.76-21.35L39.76-21.35Q39.04-20.44 37.44-19.70L37.44-19.70L37.44-19.70Q35.84-18.95 33.64-18.95L33.64-18.95L33.64-18.95Q31.43-18.95 29.21-19.66L29.21-19.66L29.21-19.66Q26.56-15.91 23.63-4.56L23.63-4.56L23.63-4.56Q22.19 1.13 19.48 3.72L19.48 3.72L19.48 3.72Q16.77 6.32 11.64 6.32L11.64 6.32L11.64 6.32Q6.51 6.32 3.98 3.20L3.98 3.20L3.98 3.20Q1.75 0.43 1.75-3.24L1.75-3.24L1.75-3.24Q1.75-3.71 1.79-4.17L1.79-4.17L2.69-4.17L2.69-3.63L2.69-3.63Q2.69-0.94 4.13 1.64L4.13 1.64L4.13 1.64Q4.76 2.73 5.64 3.53L5.64 3.53L5.64 3.53Q6.51 4.33 8.00 4.88L8.00 4.88L8.00 4.88Q9.48 5.42 11.31 5.42L11.31 5.42L11.31 5.42Q14.35 5.42 16.13 2.96L16.13 2.96L16.13 2.96Q17.90 0.51 19.56-6.53L19.56-6.53L19.56-6.53Q21.22-13.57 22.95-16.59L22.95-16.59L22.95-16.59Q24.69-19.62 28.00-20.09L28.00-20.09L28.00-20.09Q26.99-20.48 25.86-20.96L25.86-20.96L25.86-20.96Q24.73-21.45 23.69-21.82L23.69-21.82L23.69-21.82Q22.66-22.19 20.73-22.56L20.73-22.56L20.73-22.56Q18.80-22.93 16.42-22.93L16.42-22.93L16.42-22.93Q14.04-22.93 11.99-22.07L11.99-22.07L11.99-22.07Q9.95-21.22 8.81-19.81L8.81-19.81L8.81-19.81Q6.55-17.08 6.55-13.49L6.55-13.49L6.55-13.49Q6.55-11.47 7.29-9.93L7.29-9.93L7.29-9.93Q8.03-8.38 9.09-7.64L9.09-7.64L9.09-7.64Q11.23-6.20 12.99-6.01L12.99-6.01L13.73-5.93L13.49-5.07L13.49-5.07Q12.52-5.07 10.98-5.67L10.98-5.67L10.98-5.67Q9.44-6.28 8.37-7.10" fill="#619649" stroke="none" stroke-width="none" transform="translate(-141.27999877929688,9.332971441095522)" style="fill: rgb(97, 150, 73);"></path></g><g class="path" style="transform: scale(0.91); transform-origin: -100.605px 1.74797px; animation: 1s linear -0.6s infinite normal forwards running breath-9bd3241e-d489-466a-a232-c5ba8dedf28b;"><path d="M34.16-13.30L33.58-13.77L33.58-13.77Q34.75-15.17 36.52-15.17L36.52-15.17L36.52-15.17Q38.30-15.17 39.27-14.27L39.27-14.27L39.27-14.27Q40.25-13.38 40.25-11.74L40.25-11.74L40.25-11.51L40.25-11.51Q42.00-15.17 44.81-15.17L44.81-15.17L44.81-15.17Q47.81-15.17 47.81-12.05L47.81-12.05L47.81-12.05Q47.81-10.76 46.96-9.32L46.96-9.32L46.96-9.32Q46.10-7.88 45.24-6.57L45.24-6.57L45.24-6.57Q44.38-5.26 44.38-4.25L44.38-4.25L43.45-4.25L43.45-4.25Q43.45-5.69 45.12-8.15L45.12-8.15L45.12-8.15Q46.80-10.61 46.80-11.95L46.80-11.95L46.80-11.95Q46.80-13.30 46.27-13.79L46.27-13.79L46.27-13.79Q45.75-14.27 44.71-14.27L44.71-14.27L44.71-14.27Q43.68-14.27 42.69-13.38L42.69-13.38L42.69-13.38Q41.69-12.48 41.03-11.12L41.03-11.12L41.03-11.12Q39.97-9.09 39.62-7.80L39.62-7.80L39.62-7.76L38.22 0L33.54 0L36.11-14.39L36.11-14.39Q34.94-14.27 34.16-13.30L34.16-13.30" fill="#619649" stroke="none" stroke-width="none" transform="translate(-141.27999877929688,9.332971441095522)" style="fill: rgb(133, 223, 111);"></path></g><g class="path" style="transform: scale(0.91); transform-origin: -84.225px 1.92297px; animation: 1s linear -0.57s infinite normal forwards running breath-9bd3241e-d489-466a-a232-c5ba8dedf28b;"><path d="M62.40 0.35L62.40 0.35L62.40 0.35Q58.97 0.35 58.66-2.65L58.66-2.65L58.66-2.65Q56.94 0.35 54.33 0.35L54.33 0.35L54.33 0.35Q51.71 0.35 50.17-1.23L50.17-1.23L50.17-1.23Q48.63-2.81 48.63-5.66L48.63-5.66L48.63-5.66Q48.63-10.10 50.82-12.64L50.82-12.64L50.82-12.64Q53.00-15.17 56.47-15.17L56.47-15.17L56.47-15.17Q59.32-15.17 60.25-12.48L60.25-12.48L60.25-12.48Q60.45-13.65 60.68-14.82L60.68-14.82L60.68-14.82Q63.57-14.82 64.97-15.05L64.97-15.05L65.48-15.17L62.79-0.43L62.79-0.43Q63.96-0.55 64.74-1.52L64.74-1.52L65.32-1.05L65.32-1.05Q64.16 0.35 62.40 0.35zM53.04-3.67L53.04-3.67Q53.04-1.91 53.49-1.23L53.49-1.23L53.49-1.23Q53.94-0.55 54.87-0.55L54.87-0.55L54.87-0.55Q55.81-0.55 56.78-1.56L56.78-1.56L56.78-1.56Q58.07-2.89 58.85-4.91L58.85-4.91L58.85-4.91Q58.97-5.42 59.30-7.35L59.30-7.35L59.30-7.35Q59.63-9.28 59.86-10.53L59.86-10.53L59.86-10.53Q59.75-12.01 59.05-13.10L59.05-13.10L59.05-13.10Q58.34-14.20 57.29-14.20L57.29-14.20L57.29-14.20Q55.38-14.20 54.21-10.78L54.21-10.78L54.21-10.78Q53.04-7.37 53.04-3.67L53.04-3.67" fill="#619649" stroke="none" stroke-width="none" transform="translate(-141.27999877929688,9.332971441095522)" style="fill: rgb(117, 179, 76);"></path></g><g class="path" style="transform: scale(0.91); transform-origin: -64.895px 1.92297px; animation: 1s linear -0.54s infinite normal forwards running breath-9bd3241e-d489-466a-a232-c5ba8dedf28b;"><path d="M82.60-0.43L82.60-0.43L82.60-0.43Q83.54-0.43 84.55-1.52L84.55-1.52L85.14-1.05L85.14-1.05Q84.86-0.51 83.93-0.08L83.93-0.08L83.93-0.08Q82.99 0.35 81.86 0.35L81.86 0.35L81.86 0.35Q78.31 0.35 78.31-2.85L78.31-2.85L78.31-2.85Q78.31-4.21 79.01-7.72L79.01-7.72L79.01-7.72Q79.72-11.23 79.72-12.32L79.72-12.32L79.72-12.32Q79.72-14.00 78.12-14.00L78.12-14.00L78.12-14.00Q76.83-14.00 75.64-12.32L75.64-12.32L75.64-12.32Q74.45-10.65 73.67-7.72L73.67-7.72L72.34-0.43L72.34-0.43Q73.55-0.55 74.33-1.52L74.33-1.52L74.92-1.05L74.92-1.05Q73.75 0.35 71.99 0.35L71.99 0.35L71.99 0.35Q70.24 0.35 69.24-0.55L69.24-0.55L69.24-0.55Q68.25-1.44 68.25-2.89L68.25-2.89L68.25-2.89Q68.25-3.43 68.87-7.18L68.87-7.18L70.16-14.39L70.16-14.39Q68.99-14.27 68.21-13.30L68.21-13.30L67.63-13.77L67.63-13.77Q68.80-15.17 70.57-15.17L70.57-15.17L70.57-15.17Q72.34-15.17 73.32-14.27L73.32-14.27L73.32-14.27Q74.30-13.38 74.30-11.74L74.30-11.74L74.30-11.51L74.30-11.51Q75.89-15.17 79.29-15.17L79.29-15.17L79.29-15.17Q81.59-15.17 82.88-13.86L82.88-13.86L82.88-13.86Q84.16-12.56 84.16-10.26L84.16-10.26L84.16-10.26Q84.16-9.05 83.42-5.60L83.42-5.60L83.42-5.60Q82.68-2.15 82.60-0.43" fill="#619649" stroke="none" stroke-width="none" transform="translate(-141.27999877929688,9.332971441095522)" style="fill: rgb(182, 210, 80);"></path></g><g class="path" style="transform: scale(0.91); transform-origin: -48.735px 1.02797px; animation: 1s linear -0.51s infinite normal forwards running breath-9bd3241e-d489-466a-a232-c5ba8dedf28b;"><path d="M90.64-0.66L90.64-0.66L90.64-0.66Q94.50-0.66 94.50-6.36L94.50-6.36L94.50-6.36Q94.50-7.76 94.09-9.67L94.09-9.67L94.09-9.67Q93.68-11.58 93.60-12.05L93.60-12.05L93.60-12.05Q91.22-9.59 88.26-9.09L88.26-9.09L88.26-10.02L88.26-10.02Q91.06-10.65 93.52-13.22L93.52-13.22L93.52-13.38L93.52-13.38Q93.52-14.31 93.80-15.21L93.80-15.21L93.80-15.21Q94.07-16.11 94.34-16.54L94.34-16.54L94.61-16.96L95.55-16.96L95.55-16.96Q95.55-15.25 96.10-13.83L96.10-13.83L96.10-13.83Q96.64-12.40 97.30-11.52L97.30-11.52L97.30-11.52Q97.97-10.65 98.51-9.22L98.51-9.22L98.51-9.22Q99.06-7.80 99.06-6.08L99.06-6.08L99.06-6.08Q99.06-3.31 96.97-1.48L96.97-1.48L96.97-1.48Q94.89 0.35 91.96 0.35L91.96 0.35L91.96 0.35Q89.04 0.35 87.54-0.97L87.54-0.97L87.54-0.97Q86.03-2.30 86.03-4.04L86.03-4.04L86.03-4.04Q86.03-5.77 86.89-6.53L86.89-6.53L86.89-6.53Q87.75-7.29 88.92-7.29L88.92-7.29L88.92-7.29Q90.09-7.29 90.85-6.53L90.85-6.53L90.85-6.53Q91.61-5.77 91.61-4.58L91.61-4.58L91.61-4.58Q91.61-3.39 90.87-2.57L90.87-2.57L90.87-2.57Q90.13-1.75 88.96-1.75L88.96-1.75L88.96-1.75Q88.45-1.75 87.91-1.91L87.91-1.91L87.91-1.91Q88.76-0.66 90.64-0.66" fill="#619649" stroke="none" stroke-width="none" transform="translate(-141.27999877929688,9.332971441095522)" style="fill: rgb(142, 167, 34);"></path></g><g class="path" style="transform: scale(0.91); transform-origin: -34.145px -1.93703px; animation: 1s linear -0.48s infinite normal forwards running breath-9bd3241e-d489-466a-a232-c5ba8dedf28b;"><path d="M110.25-25.27L110.25-25.27L110.25-25.27Q111.66-25.27 112.57-24.22L112.57-24.22L112.57-24.22Q113.49-23.17 113.49-21.06L113.49-21.06L113.49-21.06Q113.49-18.95 111.81-14.82L111.81-14.82L113.30-14.82L113.22-14.12L111.50-14.12L111.50-14.12Q110.18-10.80 110.18-9.09L110.18-9.09L109.47-9.09L109.47-9.09Q109.47-11.12 110.76-14.12L110.76-14.12L108.50-14.12L108.50-14.12Q107.33-8.00 105.50 2.73L105.50 2.73L100.78 2.73L103.78-14.12L101.40-14.12L101.48-14.82L103.90-14.82L104.52-18.17L104.52-18.17Q105.14-22.04 106.45-23.65L106.45-23.65L106.45-23.65Q107.76-25.27 110.25-25.27zM112.75-21.14L112.75-21.14L112.75-21.14Q112.75-22.54 112.11-23.56L112.11-23.56L112.11-23.56Q111.46-24.57 110.53-24.57L110.53-24.57L110.53-24.57Q110.14-23.05 108.62-14.82L108.62-14.82L111.03-14.82L111.03-14.82Q112.75-18.72 112.75-21.14" fill="#619649" stroke="none" stroke-width="none" transform="translate(-141.27999877929688,9.332971441095522)" style="fill: rgb(97, 150, 73);"></path></g><g class="path" style="transform: scale(0.91); transform-origin: -21.625px 1.92297px; animation: 1s linear -0.45s infinite normal forwards running breath-9bd3241e-d489-466a-a232-c5ba8dedf28b;"><path d="M121.37-15.17L121.37-15.17L121.37-15.17Q126.32-15.17 126.32-11.23L126.32-11.23L126.32-11.23Q126.32-8.78 124.00-7.51L124.00-7.51L124.00-7.51Q121.68-6.24 117.39-6.20L117.39-6.20L117.39-6.20Q117.31-4.80 117.31-3.98L117.31-3.98L117.31-3.98Q117.31-2.22 118.11-1.38L118.11-1.38L118.11-1.38Q118.91-0.55 120.12-0.55L120.12-0.55L120.12-0.55Q121.33-0.55 122.32-1.01L122.32-1.01L122.32-1.01Q123.32-1.48 123.90-2.13L123.90-2.13L123.90-2.13Q124.49-2.77 124.92-3.47L124.92-3.47L124.92-3.47Q125.70-4.76 125.70-5.11L125.70-5.11L126.40-4.80L126.40-4.80Q126.28-4.17 125.70-3.14L125.70-3.14L125.70-3.14Q125.11-2.11 124.41-1.44L124.41-1.44L124.41-1.44Q123.71-0.78 122.34-0.21L122.34-0.21L122.34-0.21Q120.98 0.35 119.30 0.35L119.30 0.35L119.30 0.35Q116.14 0.35 114.52-1.15L114.52-1.15L114.52-1.15Q112.91-2.65 112.91-5.26L112.91-5.26L112.91-5.26Q112.91-9.91 115.21-12.54L115.21-12.54L115.21-12.54Q117.51-15.17 121.37-15.17zM125.35-11.23L125.35-11.23Q125.35-12.52 124.59-13.36L124.59-13.36L124.59-13.36Q123.83-14.20 122.32-14.20L122.32-14.20L122.32-14.20Q120.82-14.20 119.40-12.40L119.40-12.40L119.40-12.40Q117.97-10.61 117.51-7.10L117.51-7.10L117.51-7.10Q125.35-7.14 125.35-11.23L125.35-11.23" fill="#619649" stroke="none" stroke-width="none" transform="translate(-141.27999877929688,9.332971441095522)" style="fill: rgb(133, 223, 111);"></path></g><g class="path" style="transform: scale(0.91); transform-origin: -5.52px 1.74797px; animation: 1s linear -0.42s infinite normal forwards running breath-9bd3241e-d489-466a-a232-c5ba8dedf28b;"><path d="M129.25-13.30L128.66-13.77L128.66-13.77Q129.83-15.17 131.61-15.17L131.61-15.17L131.61-15.17Q133.38-15.17 134.36-14.27L134.36-14.27L134.36-14.27Q135.33-13.38 135.33-11.74L135.33-11.74L135.33-11.51L135.33-11.51Q137.09-15.17 139.89-15.17L139.89-15.17L139.89-15.17Q142.90-15.17 142.90-12.05L142.90-12.05L142.90-12.05Q142.90-10.76 142.04-9.32L142.04-9.32L142.04-9.32Q141.18-7.88 140.32-6.57L140.32-6.57L140.32-6.57Q139.46-5.26 139.46-4.25L139.46-4.25L138.53-4.25L138.53-4.25Q138.53-5.69 140.21-8.15L140.21-8.15L140.21-8.15Q141.88-10.61 141.88-11.95L141.88-11.95L141.88-11.95Q141.88-13.30 141.36-13.79L141.36-13.79L141.36-13.79Q140.83-14.27 139.80-14.27L139.80-14.27L139.80-14.27Q138.76-14.27 137.77-13.38L137.77-13.38L137.77-13.38Q136.77-12.48 136.11-11.12L136.11-11.12L136.11-11.12Q135.06-9.09 134.71-7.80L134.71-7.80L134.71-7.76L133.30 0L128.62 0L131.20-14.39L131.20-14.39Q130.03-14.27 129.25-13.30L129.25-13.30" fill="#619649" stroke="none" stroke-width="none" transform="translate(-141.27999877929688,9.332971441095522)" style="fill: rgb(117, 179, 76);"></path></g><g class="path" style="transform: scale(0.91); transform-origin: 16.785px -1.93703px; animation: 1s linear -0.39s infinite normal forwards running breath-9bd3241e-d489-466a-a232-c5ba8dedf28b;"><path d="M161.19-25.27L161.19-25.27L161.19-25.27Q162.59-25.27 163.51-24.22L163.51-24.22L163.51-24.22Q164.42-23.17 164.42-21.06L164.42-21.06L164.42-21.06Q164.42-18.95 162.75-14.82L162.75-14.82L164.23-14.82L164.15-14.12L162.44-14.12L162.44-14.12Q161.11-10.80 161.11-9.09L161.11-9.09L160.41-9.09L160.41-9.09Q160.41-11.12 161.69-14.12L161.69-14.12L159.43-14.12L159.43-14.12Q158.26-8.00 156.43 2.73L156.43 2.73L151.71 2.73L154.71-14.12L152.33-14.12L152.41-14.82L154.83-14.82L155.45-18.17L155.45-18.17Q156.08-22.04 157.38-23.65L157.38-23.65L157.38-23.65Q158.69-25.27 161.19-25.27zM163.68-21.14L163.68-21.14L163.68-21.14Q163.68-22.54 163.04-23.56L163.04-23.56L163.04-23.56Q162.40-24.57 161.46-24.57L161.46-24.57L161.46-24.57Q161.07-23.05 159.55-14.82L159.55-14.82L161.97-14.82L161.97-14.82Q163.68-18.72 163.68-21.14" fill="#619649" stroke="none" stroke-width="none" transform="translate(-141.27999877929688,9.332971441095522)" style="fill: rgb(182, 210, 80);"></path></g><g class="path" style="transform: scale(0.91); transform-origin: 26.555px 1.92297px; animation: 1s linear -0.36s infinite normal forwards running breath-9bd3241e-d489-466a-a232-c5ba8dedf28b;"><path d="M171.09-1.05L171.09-1.05Q169.92 0.35 168.17 0.35L168.17 0.35L168.17 0.35Q166.41 0.35 165.42-0.55L165.42-0.55L165.42-0.55Q164.42-1.44 164.42-2.89L164.42-2.89L164.42-2.89Q164.42-3.39 165.05-7.14L165.05-7.14L166.34-14.12L164.70-14.12L164.78-14.82L166.45-14.82L166.45-14.82Q169.34-14.82 170.70-15.05L170.70-15.05L171.25-15.17L168.56-0.43L168.56-0.43Q169.73-0.55 170.51-1.52L170.51-1.52L171.09-1.05" fill="#619649" stroke="none" stroke-width="none" transform="translate(-141.27999877929688,9.332971441095522)" style="fill: rgb(142, 167, 34);"></path></g><g class="path" style="transform: scale(0.91); transform-origin: 28.39px -11.592px; animation: 1s linear -0.33s infinite normal forwards running breath-9bd3241e-d489-466a-a232-c5ba8dedf28b;"><path d="M167.66-18.91L167.66-18.91L167.66-18.91Q166.84-19.73 166.84-20.90L166.84-20.90L166.84-20.90Q166.84-22.07 167.66-22.91L167.66-22.91L167.66-22.91Q168.48-23.75 169.65-23.75L169.65-23.75L169.65-23.75Q170.82-23.75 171.66-22.91L171.66-22.91L171.66-22.91Q172.50-22.07 172.50-20.90L172.50-20.90L172.50-20.90Q172.50-19.73 171.66-18.91L171.66-18.91L171.66-18.91Q170.82-18.10 169.65-18.10L169.65-18.10L169.65-18.10Q168.48-18.10 167.66-18.91" fill="#619649" stroke="none" stroke-width="none" transform="translate(-141.27999877929688,9.332971441095522)" style="fill: rgb(97, 150, 73);"></path></g><g class="path" style="transform: scale(0.91); transform-origin: 40.905px 1.92297px; animation: 1s linear -0.3s infinite normal forwards running breath-9bd3241e-d489-466a-a232-c5ba8dedf28b;"><path d="M188.41-0.43L188.41-0.43L188.41-0.43Q189.34-0.43 190.36-1.52L190.36-1.52L190.94-1.05L190.94-1.05Q190.67-0.51 189.73-0.08L189.73-0.08L189.73-0.08Q188.80 0.35 187.67 0.35L187.67 0.35L187.67 0.35Q184.12 0.35 184.12-2.85L184.12-2.85L184.12-2.85Q184.12-4.21 184.82-7.72L184.82-7.72L184.82-7.72Q185.52-11.23 185.52-12.32L185.52-12.32L185.52-12.32Q185.52-14.00 183.92-14.00L183.92-14.00L183.92-14.00Q182.64-14.00 181.45-12.32L181.45-12.32L181.45-12.32Q180.26-10.65 179.48-7.72L179.48-7.72L178.15-0.43L178.15-0.43Q179.36-0.55 180.14-1.52L180.14-1.52L180.73-1.05L180.73-1.05Q179.56 0.35 177.80 0.35L177.80 0.35L177.80 0.35Q176.05 0.35 175.05-0.55L175.05-0.55L175.05-0.55Q174.06-1.44 174.06-2.89L174.06-2.89L174.06-2.89Q174.06-3.43 174.68-7.18L174.68-7.18L175.97-14.39L175.97-14.39Q174.80-14.27 174.02-13.30L174.02-13.30L173.43-13.77L173.43-13.77Q174.60-15.17 176.38-15.17L176.38-15.17L176.38-15.17Q178.15-15.17 179.13-14.27L179.13-14.27L179.13-14.27Q180.10-13.38 180.10-11.74L180.10-11.74L180.10-11.51L180.10-11.51Q181.70-15.17 185.09-15.17L185.09-15.17L185.09-15.17Q187.39-15.17 188.68-13.86L188.68-13.86L188.68-13.86Q189.97-12.56 189.97-10.26L189.97-10.26L189.97-10.26Q189.97-9.05 189.23-5.60L189.23-5.60L189.23-5.60Q188.49-2.15 188.41-0.43" fill="#619649" stroke="none" stroke-width="none" transform="translate(-141.27999877929688,9.332971441095522)" style="fill: rgb(133, 223, 111);"></path></g><g class="path" style="transform: scale(0.91); transform-origin: 55.455px 1.92297px; animation: 1s linear -0.27s infinite normal forwards running breath-9bd3241e-d489-466a-a232-c5ba8dedf28b;"><path d="M199.99-1.05L199.99-1.05Q198.82 0.35 197.07 0.35L197.07 0.35L197.07 0.35Q195.31 0.35 194.32-0.55L194.32-0.55L194.32-0.55Q193.32-1.44 193.32-2.89L193.32-2.89L193.32-2.89Q193.32-3.39 193.95-7.14L193.95-7.14L195.23-14.12L193.60-14.12L193.67-14.82L195.35-14.82L195.35-14.82Q198.24-14.82 199.60-15.05L199.60-15.05L200.15-15.17L197.46-0.43L197.46-0.43Q198.63-0.55 199.41-1.52L199.41-1.52L199.99-1.05" fill="#619649" stroke="none" stroke-width="none" transform="translate(-141.27999877929688,9.332971441095522)" style="fill: rgb(117, 179, 76);"></path></g><g class="path" style="transform: scale(0.91); transform-origin: 57.29px -11.592px; animation: 1s linear -0.24s infinite normal forwards running breath-9bd3241e-d489-466a-a232-c5ba8dedf28b;"><path d="M196.56-18.91L196.56-18.91L196.56-18.91Q195.74-19.73 195.74-20.90L195.74-20.90L195.74-20.90Q195.74-22.07 196.56-22.91L196.56-22.91L196.56-22.91Q197.38-23.75 198.55-23.75L198.55-23.75L198.55-23.75Q199.72-23.75 200.56-22.91L200.56-22.91L200.56-22.91Q201.40-22.07 201.40-20.90L201.40-20.90L201.40-20.90Q201.40-19.73 200.56-18.91L200.56-18.91L200.56-18.91Q199.72-18.10 198.55-18.10L198.55-18.10L198.55-18.10Q197.38-18.10 196.56-18.91" fill="#619649" stroke="none" stroke-width="none" transform="translate(-141.27999877929688,9.332971441095522)" style="fill: rgb(182, 210, 80);"></path></g><g class="path" style="transform: scale(0.91); transform-origin: 66.51px 1.02797px; animation: 1s linear -0.21s infinite normal forwards running breath-9bd3241e-d489-466a-a232-c5ba8dedf28b;"><path d="M205.88-0.66L205.88-0.66L205.88-0.66Q209.74-0.66 209.74-6.36L209.74-6.36L209.74-6.36Q209.74-7.76 209.33-9.67L209.33-9.67L209.33-9.67Q208.92-11.58 208.84-12.05L208.84-12.05L208.84-12.05Q206.47-9.59 203.50-9.09L203.50-9.09L203.50-10.02L203.50-10.02Q206.31-10.65 208.77-13.22L208.77-13.22L208.77-13.38L208.77-13.38Q208.77-14.31 209.04-15.21L209.04-15.21L209.04-15.21Q209.31-16.11 209.59-16.54L209.59-16.54L209.86-16.96L210.79-16.96L210.79-16.96Q210.79-15.25 211.34-13.83L211.34-13.83L211.34-13.83Q211.89-12.40 212.55-11.52L212.55-11.52L212.55-11.52Q213.21-10.65 213.76-9.22L213.76-9.22L213.76-9.22Q214.30-7.80 214.30-6.08L214.30-6.08L214.30-6.08Q214.30-3.31 212.22-1.48L212.22-1.48L212.22-1.48Q210.13 0.35 207.21 0.35L207.21 0.35L207.21 0.35Q204.28 0.35 202.78-0.97L202.78-0.97L202.78-0.97Q201.28-2.30 201.28-4.04L201.28-4.04L201.28-4.04Q201.28-5.77 202.14-6.53L202.14-6.53L202.14-6.53Q202.99-7.29 204.16-7.29L204.16-7.29L204.16-7.29Q205.33-7.29 206.10-6.53L206.10-6.53L206.10-6.53Q206.86-5.77 206.86-4.58L206.86-4.58L206.86-4.58Q206.86-3.39 206.11-2.57L206.11-2.57L206.11-2.57Q205.37-1.75 204.20-1.75L204.20-1.75L204.20-1.75Q203.70-1.75 203.15-1.91L203.15-1.91L203.15-1.91Q204.01-0.66 205.88-0.66" fill="#619649" stroke="none" stroke-width="none" transform="translate(-141.27999877929688,9.332971441095522)" style="fill: rgb(142, 167, 34);"></path></g><g class="path" style="transform: scale(0.91); transform-origin: 83.675px -3.12703px; animation: 1s linear -0.18s infinite normal forwards running breath-9bd3241e-d489-466a-a232-c5ba8dedf28b;"><path d="M231.19-0.43L231.19-0.43L231.19-0.43Q232.13-0.43 233.14-1.52L233.14-1.52L233.73-1.05L233.73-1.05Q233.45-0.51 232.52-0.08L232.52-0.08L232.52-0.08Q231.58 0.35 230.45 0.35L230.45 0.35L230.45 0.35Q226.90 0.35 226.90-2.85L226.90-2.85L226.90-2.85Q226.90-4.21 227.60-7.72L227.60-7.72L227.60-7.72Q228.31-11.23 228.31-12.32L228.31-12.32L228.31-12.32Q228.31-14.00 226.71-14.00L226.71-14.00L226.71-14.00Q225.38-14.00 224.15-12.21L224.15-12.21L224.15-12.21Q222.92-10.41 222.14-7.33L222.14-7.33L220.86 0L216.18 0L220.51-24.49L220.51-24.49Q219.34-24.38 218.56-23.40L218.56-23.40L217.97-23.87L217.97-23.87Q219.14-25.27 220.92-25.27L220.92-25.27L220.92-25.27Q222.69-25.27 223.66-24.38L223.66-24.38L223.66-24.38Q224.64-23.48 224.64-21.84L224.64-21.84L224.64-21.84Q224.64-21.53 224.56-20.83L224.56-20.83L222.92-11.58L222.92-11.58Q224.52-15.17 227.88-15.17L227.88-15.17L227.88-15.17Q230.18-15.17 231.47-13.86L231.47-13.86L231.47-13.86Q232.75-12.56 232.75-10.26L232.75-10.26L232.75-10.26Q232.75-9.05 232.01-5.60L232.01-5.60L232.01-5.60Q231.27-2.15 231.19-0.43" fill="#619649" stroke="none" stroke-width="none" transform="translate(-141.27999877929688,9.332971441095522)" style="fill: rgb(97, 150, 73);"></path></g><g class="path" style="transform: scale(0.91); transform-origin: 100.985px 1.92297px; animation: 1s linear -0.15s infinite normal forwards running breath-9bd3241e-d489-466a-a232-c5ba8dedf28b;"><path d="M243.98-15.17L243.98-15.17L243.98-15.17Q248.94-15.17 248.94-11.23L248.94-11.23L248.94-11.23Q248.94-8.78 246.62-7.51L246.62-7.51L246.62-7.51Q244.30-6.24 240.01-6.20L240.01-6.20L240.01-6.20Q239.93-4.80 239.93-3.98L239.93-3.98L239.93-3.98Q239.93-2.22 240.73-1.38L240.73-1.38L240.73-1.38Q241.53-0.55 242.74-0.55L242.74-0.55L242.74-0.55Q243.94-0.55 244.94-1.01L244.94-1.01L244.94-1.01Q245.93-1.48 246.52-2.13L246.52-2.13L246.52-2.13Q247.10-2.77 247.53-3.47L247.53-3.47L247.53-3.47Q248.31-4.76 248.31-5.11L248.31-5.11L249.01-4.80L249.01-4.80Q248.90-4.17 248.31-3.14L248.31-3.14L248.31-3.14Q247.73-2.11 247.03-1.44L247.03-1.44L247.03-1.44Q246.32-0.78 244.96-0.21L244.96-0.21L244.96-0.21Q243.59 0.35 241.92 0.35L241.92 0.35L241.92 0.35Q238.76 0.35 237.14-1.15L237.14-1.15L237.14-1.15Q235.52-2.65 235.52-5.26L235.52-5.26L235.52-5.26Q235.52-9.91 237.82-12.54L237.82-12.54L237.82-12.54Q240.12-15.17 243.98-15.17zM247.96-11.23L247.96-11.23Q247.96-12.52 247.20-13.36L247.20-13.36L247.20-13.36Q246.44-14.20 244.94-14.20L244.94-14.20L244.94-14.20Q243.44-14.20 242.01-12.40L242.01-12.40L242.01-12.40Q240.59-10.61 240.12-7.10L240.12-7.10L240.12-7.10Q247.96-7.14 247.96-11.23L247.96-11.23" fill="#619649" stroke="none" stroke-width="none" transform="translate(-141.27999877929688,9.332971441095522)" style="fill: rgb(133, 223, 111);"></path></g><g class="path" style="transform: scale(0.91); transform-origin: 118.595px -3.12703px; animation: 1s linear -0.12s infinite normal forwards running breath-9bd3241e-d489-466a-a232-c5ba8dedf28b;"><path d="M264.58 0.35L264.58 0.35L264.58 0.35Q261.14 0.35 260.83-2.57L260.83-2.57L260.83-2.57Q259.12 0.35 256.46 0.35L256.46 0.35L256.46 0.35Q253.81 0.35 252.41-1.15L252.41-1.15L252.41-1.15Q251.00-2.65 251.00-5.26L251.00-5.26L251.00-5.26Q251.00-9.87 253.19-12.52L253.19-12.52L253.19-12.52Q255.37-15.17 258.84-15.17L258.84-15.17L258.84-15.17Q260.83-15.17 261.92-13.96L261.92-13.96L261.92-13.96Q262.39-13.34 262.51-13.03L262.51-13.03L264.62-24.49L264.62-24.49Q263.44-24.38 262.66-23.40L262.66-23.40L262.08-23.87L262.08-23.87Q263.25-25.27 265.02-25.27L265.02-25.27L265.02-25.27Q266.80-25.27 267.77-24.38L267.77-24.38L267.77-24.38Q268.75-23.48 268.75-21.84L268.75-21.84L268.75-21.84Q268.75-21.53 268.67-20.83L268.67-20.83L268.67-20.83Q266.76-10.10 264.97-0.43L264.97-0.43L264.97-0.43Q266.14-0.55 266.92-1.52L266.92-1.52L267.50-1.05L267.50-1.05Q266.33 0.35 264.58 0.35zM255.41-3.67L255.41-3.67Q255.41-1.87 255.78-1.21L255.78-1.21L255.78-1.21Q256.15-0.55 256.95-0.55L256.95-0.55L256.95-0.55Q257.75-0.55 258.49-1.09L258.49-1.09L258.49-1.09Q259.23-1.64 259.74-2.50L259.74-2.50L259.74-2.50Q260.68-3.94 261.07-4.95L261.07-4.95L262.20-11.12L262.20-11.12Q262.12-12.36 261.38-13.40L261.38-13.40L261.38-13.40Q260.64-14.43 258.84-14.43L258.84-14.43L258.84-14.43Q257.59-14.43 256.50-10.76L256.50-10.76L256.50-10.76Q255.41-7.10 255.41-3.67L255.41-3.67" fill="#619649" stroke="none" stroke-width="none" transform="translate(-141.27999877929688,9.332971441095522)" style="fill: rgb(117, 179, 76);"></path></g><g class="path" style="transform: scale(0.91); transform-origin: 130.335px 7.67297px; animation: 1s linear -0.09s infinite normal forwards running breath-9bd3241e-d489-466a-a232-c5ba8dedf28b;"><path d="M270.21-0.25L270.21-0.25L270.21-0.25Q269.65-0.82 269.65-1.64L269.65-1.64L269.65-1.64Q269.65-2.46 270.21-3.04L270.21-3.04L270.21-3.04Q270.78-3.63 271.60-3.63L271.60-3.63L271.60-3.63Q272.41-3.63 273-3.04L273-3.04L273-3.04Q273.58-2.46 273.58-1.64L273.58-1.64L273.58-1.64Q273.58-0.82 273-0.25L273-0.25L273-0.25Q272.41 0.31 271.60 0.31L271.60 0.31L271.60 0.31Q270.78 0.31 270.21-0.25" fill="#619649" stroke="none" stroke-width="none" transform="translate(-141.27999877929688,9.332971441095522)" style="fill: rgb(182, 210, 80);"></path></g><g class="path" style="transform: scale(0.91); transform-origin: 132.81px -5.02203px; animation: 1s linear -0.06s infinite normal forwards running breath-9bd3241e-d489-466a-a232-c5ba8dedf28b;"><path d="M272.88-4.76L271.83-4.88L275.22-23.95L276.35-23.79L272.88-4.76" fill="#619649" stroke="none" stroke-width="none" transform="translate(-141.27999877929688,9.332971441095522)" style="fill: rgb(142, 167, 34);"></path></g><g class="path" style="transform: scale(0.91); transform-origin: 138.29px 7.67297px; animation: 1s linear -0.03s infinite normal forwards running breath-9bd3241e-d489-466a-a232-c5ba8dedf28b;"><path d="M278.17-0.25L278.17-0.25L278.17-0.25Q277.60-0.82 277.60-1.64L277.60-1.64L277.60-1.64Q277.60-2.46 278.17-3.04L278.17-3.04L278.17-3.04Q278.73-3.63 279.55-3.63L279.55-3.63L279.55-3.63Q280.37-3.63 280.96-3.04L280.96-3.04L280.96-3.04Q281.54-2.46 281.54-1.64L281.54-1.64L281.54-1.64Q281.54-0.82 280.96-0.25L280.96-0.25L280.96-0.25Q280.37 0.31 279.55 0.31L279.55 0.31L279.55 0.31Q278.73 0.31 278.17-0.25" fill="#619649" stroke="none" stroke-width="none" transform="translate(-141.27999877929688,9.332971441095522)" style="fill: rgb(97, 150, 73);"></path></g><g class="path" style="transform: scale(0.91); transform-origin: 140.77px -5.02203px; animation: 1s linear 0s infinite normal forwards running breath-9bd3241e-d489-466a-a232-c5ba8dedf28b;"><path d="M280.84-4.76L279.79-4.88L283.18-23.95L284.31-23.79L280.84-4.76" fill="#619649" stroke="none" stroke-width="none" transform="translate(-141.27999877929688,9.332971441095522)" style="fill: rgb(133, 223, 111);"></path></g></g>
</g>
</g>
<style id="breath-9bd3241e-d489-466a-a232-c5ba8dedf28b" data-anikit="">@keyframes breath-9bd3241e-d489-466a-a232-c5ba8dedf28b
{
  0% {
    animation-timing-function: cubic-bezier(0.9647,0.2413,-0.0705,0.7911);
    transform: scale(0.9099999999999999);
  }
  51% {
    animation-timing-function: cubic-bezier(0.9226,0.2631,-0.0308,0.7628);
    transform: scale(1.02994);
  }
  100% {
    transform: scale(0.9099999999999999);
  }
}</style></svg>