<?xml version="1.0" encoding="utf-8"?>
<svg xmlns="http://www.w3.org/2000/svg" style="margin: auto; background: none; display: block; shape-rendering: auto;" width="284" height="53" preserveAspectRatio="xMidYMid">
<style type="text/css">
  text {
    text-anchor: middle; font-size: 32px; opacity: 0;
  }
</style>
<g style="transform-origin: 142px 26.5px; transform: scale(1.10345);">
<g transform="translate(142,26.5)">
  <g transform="translate(0,0)"><g class="path" style="transform: scale(0.91); transform-origin: -104.595px -0.819118px; animation: 1s linear -0.628571s infinite normal forwards running breath-2a4c3aec-b075-4684-89b8-59bf469ba608;"><path d="M25.40-1.51L25.40-1.51Q24.04 0.09 21.74 1.04L21.74 1.04L21.74 1.04Q19.43 2.00 17.01 2.00L17.01 2.00L17.01 2.00Q14.59 2.00 12.91 1.54L12.91 1.54L12.91 1.54Q10.90 2.96 8.64 2.96L8.64 2.96L8.64 2.41L8.64 2.41Q9.77 2.38 10.28 2.10L10.28 2.10L10.28 2.10Q10.79 1.83 11.17 0.93L11.17 0.93L11.17 0.93Q9.66 0.26 8.53-0.77L8.53-0.77L8.53-0.77Q7.40-1.80 7.00-2.44L7.00-2.44L7.00-2.44Q6.61-3.07 6.61-3.19L6.61-3.19L7.13-3.39L7.13-3.39Q7.13-3.28 7.50-2.70L7.50-2.70L7.50-2.70Q7.86-2.12 8.92-1.15L8.92-1.15L8.92-1.15Q9.98-0.17 11.37 0.43L11.37 0.43L11.37 0.43Q11.77-0.58 12.04-2.09L12.04-2.09L14.62-16.99L14.62-16.99Q11.60-16.76 9.28-15.81L9.28-15.81L9.28-15.81Q11.25-13.72 11.25-10.82L11.25-10.82L11.25-10.82Q11.25-8.15 9.82-6.54L9.82-6.54L9.82-6.54Q8.38-4.93 6.64-4.93L6.64-4.93L6.64-4.93Q4.90-4.93 3.97-5.99L3.97-5.99L3.97-5.99Q3.05-7.05 3.05-8.50L3.05-8.50L3.05-8.50Q3.05-10.76 4.32-12.75L4.32-12.75L4.32-12.75Q5.60-14.73 8.27-16.01L8.27-16.01L8.27-16.01Q6.35-17.63 3.22-18.15L3.22-18.15L3.33-18.71L3.33-18.71Q6.84-18.07 8.82-16.24L8.82-16.24L8.82-16.24Q12.33-17.66 17.39-17.66L17.39-17.66L17.39-17.66Q22.45-17.66 25.35-15.36L25.35-15.36L25.35-15.36Q28.25-13.05 28.25-8.93L28.25-8.93L28.25-8.93Q28.25-4.73 25.40-1.51L25.40-1.51zM16.53 1.48L16.53 1.48L16.53 1.48Q19.29 1.48 21.49 0.57L21.49 0.57L21.49 0.57Q23.69-0.35 25.00-1.86L25.00-1.86L25.00-1.86Q27.70-4.93 27.70-8.74L27.70-8.74L27.70-8.74Q27.70-12.56 25.20-14.70L25.20-14.70L25.20-14.70Q22.71-16.85 18.24-17.08L18.24-17.08L18.24-17.08Q16.82-7.48 16.01-3.28L16.01-3.28L16.01-3.28Q15.49-0.61 13.46 1.13L13.46 1.13L13.46 1.13Q14.99 1.48 16.53 1.48zM3.60-8.50L3.60-8.50L3.60-8.50Q3.60-7.31 4.36-6.39L4.36-6.39L4.36-6.39Q5.13-5.48 6.66-5.48L6.66-5.48L6.66-5.48Q8.18-5.48 9.34-6.82L9.34-6.82L9.34-6.82Q10.50-8.15 10.67-10.21L10.67-10.21L10.67-10.21Q10.70-10.59 10.70-10.96L10.70-10.96L10.70-10.96Q10.70-13.57 8.70-15.57L8.70-15.57L8.70-15.57Q6.09-14.38 4.84-12.51L4.84-12.51L4.84-12.51Q3.60-10.64 3.60-8.50" fill="#910000" stroke="none" stroke-width="none" transform="translate(-120.2449951171875,7.055882132393964)" style="fill: rgb(145, 0, 0);"></path></g><g class="path" style="transform: scale(0.91); transform-origin: -84.14px 1.54588px; animation: 1s linear -0.597143s infinite normal forwards running breath-2a4c3aec-b075-4684-89b8-59bf469ba608;"><path d="M40.08 0.26L40.08 0.26L40.08 0.26Q37.53 0.26 37.29-1.97L37.29-1.97L37.29-1.97Q36.02 0.26 34.08 0.26L34.08 0.26L34.08 0.26Q32.13 0.26 30.99-0.91L30.99-0.91L30.99-0.91Q29.84-2.09 29.84-4.21L29.84-4.21L29.84-4.21Q29.84-7.51 31.47-9.40L31.47-9.40L31.47-9.40Q33.09-11.28 35.67-11.28L35.67-11.28L35.67-11.28Q37.79-11.28 38.48-9.28L38.48-9.28L38.48-9.28Q38.63-10.15 38.80-11.02L38.80-11.02L38.80-11.02Q40.95-11.02 41.99-11.19L41.99-11.19L42.37-11.28L40.37-0.32L40.37-0.32Q41.24-0.41 41.82-1.13L41.82-1.13L42.25-0.78L42.25-0.78Q41.38 0.26 40.08 0.26zM33.12-2.73L33.12-2.73Q33.12-1.42 33.45-0.91L33.45-0.91L33.45-0.91Q33.79-0.41 34.48-0.41L34.48-0.41L34.48-0.41Q35.18-0.41 35.90-1.16L35.90-1.16L35.90-1.16Q36.86-2.15 37.44-3.65L37.44-3.65L37.44-3.65Q37.53-4.03 37.77-5.47L37.77-5.47L37.77-5.47Q38.02-6.90 38.19-7.83L38.19-7.83L38.19-7.83Q38.11-8.93 37.58-9.74L37.58-9.74L37.58-9.74Q37.06-10.56 36.28-10.56L36.28-10.56L36.28-10.56Q34.86-10.56 33.99-8.02L33.99-8.02L33.99-8.02Q33.12-5.48 33.12-2.73L33.12-2.73" fill="#910000" stroke="none" stroke-width="none" transform="translate(-120.2449951171875,7.055882132393964)" style="fill: rgb(195, 76, 55);"></path></g><g class="path" style="transform: scale(0.91); transform-origin: -71.815px -0.599118px; animation: 1s linear -0.565714s infinite normal forwards running breath-2a4c3aec-b075-4684-89b8-59bf469ba608;"><path d="M44.20-11.02L45.68-11.02L46.46-15.31L46.46-15.31Q48.60-15.31 49.65-15.49L49.65-15.49L50.03-15.57L50.03-15.57Q49.62-13.54 49.13-11.02L49.13-11.02L52.72-11.02L52.66-10.50L49.04-10.50L49.04-10.50Q47.59-3.02 47.59-1.48L47.59-1.48L47.59-1.48Q47.59-0.55 48.58-0.55L48.58-0.55L48.58-0.55Q49.56-0.55 50.37-1.80L50.37-1.80L50.37-1.80Q51.19-3.05 51.53-4.50L51.53-4.50L52.06-4.32L52.06-4.32Q50.98 0.26 47.62 0.26L47.62 0.26L47.62 0.26Q46.23 0.26 45.30-0.51L45.30-0.51L45.30-0.51Q44.37-1.28 44.37-2.65L44.37-2.65L44.37-2.65Q44.37-4.03 45.56-10.50L45.56-10.50L44.14-10.50L44.20-11.02" fill="#910000" stroke="none" stroke-width="none" transform="translate(-120.2449951171875,7.055882132393964)" style="fill: rgb(253, 127, 100);"></path></g><g class="path" style="transform: scale(0.91); transform-origin: -60.765px 1.54588px; animation: 1s linear -0.534286s infinite normal forwards running breath-2a4c3aec-b075-4684-89b8-59bf469ba608;"><path d="M63.45 0.26L63.45 0.26L63.45 0.26Q60.90 0.26 60.67-1.97L60.67-1.97L60.67-1.97Q59.39 0.26 57.45 0.26L57.45 0.26L57.45 0.26Q55.51 0.26 54.36-0.91L54.36-0.91L54.36-0.91Q53.22-2.09 53.22-4.21L53.22-4.21L53.22-4.21Q53.22-7.51 54.84-9.40L54.84-9.40L54.84-9.40Q56.46-11.28 59.04-11.28L59.04-11.28L59.04-11.28Q61.16-11.28 61.86-9.28L61.86-9.28L61.86-9.28Q62.00-10.15 62.18-11.02L62.18-11.02L62.18-11.02Q64.32-11.02 65.37-11.19L65.37-11.19L65.74-11.28L63.74-0.32L63.74-0.32Q64.61-0.41 65.19-1.13L65.19-1.13L65.63-0.78L65.63-0.78Q64.76 0.26 63.45 0.26zM56.49-2.73L56.49-2.73Q56.49-1.42 56.83-0.91L56.83-0.91L56.83-0.91Q57.16-0.41 57.86-0.41L57.86-0.41L57.86-0.41Q58.55-0.41 59.28-1.16L59.28-1.16L59.28-1.16Q60.23-2.15 60.81-3.65L60.81-3.65L60.81-3.65Q60.90-4.03 61.15-5.47L61.15-5.47L61.15-5.47Q61.39-6.90 61.57-7.83L61.57-7.83L61.57-7.83Q61.48-8.93 60.96-9.74L60.96-9.74L60.96-9.74Q60.44-10.56 59.65-10.56L59.65-10.56L59.65-10.56Q58.23-10.56 57.36-8.02L57.36-8.02L57.36-8.02Q56.49-5.48 56.49-2.73L56.49-2.73" fill="#910000" stroke="none" stroke-width="none" transform="translate(-120.2449951171875,7.055882132393964)" style="fill: rgb(220, 82, 82);"></path></g><g class="path" style="transform: scale(0.91); transform-origin: -43.875px 1.54588px; animation: 1s linear -0.502857s infinite normal forwards running breath-2a4c3aec-b075-4684-89b8-59bf469ba608;"><path d="M78.79-0.78L78.79-0.78Q77.92 0.26 76.62 0.26L76.62 0.26L76.62 0.26Q75.31 0.26 74.57-0.41L74.57-0.41L74.57-0.41Q73.83-1.07 73.83-2.15L73.83-2.15L73.83-2.15Q73.83-2.52 74.30-5.31L74.30-5.31L75.26-10.50L74.04-10.50L74.10-11.02L75.34-11.02L75.34-11.02Q77.49-11.02 78.50-11.19L78.50-11.19L78.91-11.28L76.91-0.32L76.91-0.32Q77.78-0.41 78.36-1.13L78.36-1.13L78.79-0.78" fill="#910000" stroke="none" stroke-width="none" transform="translate(-120.2449951171875,7.055882132393964)" style="fill: rgb(226, 138, 120);"></path></g><g class="path" style="transform: scale(0.91); transform-origin: -42.51px -8.50412px; animation: 1s linear -0.471429s infinite normal forwards running breath-2a4c3aec-b075-4684-89b8-59bf469ba608;"><path d="M76.24-14.07L76.24-14.07L76.24-14.07Q75.63-14.67 75.63-15.54L75.63-15.54L75.63-15.54Q75.63-16.41 76.24-17.04L76.24-17.04L76.24-17.04Q76.85-17.66 77.72-17.66L77.72-17.66L77.72-17.66Q78.59-17.66 79.21-17.04L79.21-17.04L79.21-17.04Q79.84-16.41 79.84-15.54L79.84-15.54L79.84-15.54Q79.84-14.67 79.21-14.07L79.21-14.07L79.21-14.07Q78.59-13.46 77.72-13.46L77.72-13.46L77.72-13.46Q76.85-13.46 76.24-14.07" fill="#910000" stroke="none" stroke-width="none" transform="translate(-120.2449951171875,7.055882132393964)" style="fill: rgb(145, 0, 0);"></path></g><g class="path" style="transform: scale(0.91); transform-origin: -35.65px 0.875882px; animation: 1s linear -0.44s infinite normal forwards running breath-2a4c3aec-b075-4684-89b8-59bf469ba608;"><path d="M83.17-0.49L83.17-0.49L83.17-0.49Q86.04-0.49 86.04-4.73L86.04-4.73L86.04-4.73Q86.04-5.77 85.74-7.19L85.74-7.19L85.74-7.19Q85.43-8.61 85.38-8.96L85.38-8.96L85.38-8.96Q83.61-7.13 81.40-6.76L81.40-6.76L81.40-7.45L81.40-7.45Q83.49-7.92 85.32-9.83L85.32-9.83L85.32-9.95L85.32-9.95Q85.32-10.64 85.52-11.31L85.52-11.31L85.52-11.31Q85.72-11.98 85.93-12.30L85.93-12.30L86.13-12.62L86.83-12.62L86.83-12.62Q86.83-11.34 87.23-10.28L87.23-10.28L87.23-10.28Q87.64-9.22 88.13-8.57L88.13-8.57L88.13-8.57Q88.62-7.92 89.03-6.86L89.03-6.86L89.03-6.86Q89.44-5.80 89.44-4.52L89.44-4.52L89.44-4.52Q89.44-2.47 87.88-1.10L87.88-1.10L87.88-1.10Q86.33 0.26 84.16 0.26L84.16 0.26L84.16 0.26Q81.98 0.26 80.87-0.73L80.87-0.73L80.87-0.73Q79.75-1.71 79.75-3.00L79.75-3.00L79.75-3.00Q79.75-4.29 80.39-4.86L80.39-4.86L80.39-4.86Q81.03-5.42 81.90-5.42L81.90-5.42L81.90-5.42Q82.77-5.42 83.33-4.86L83.33-4.86L83.33-4.86Q83.90-4.29 83.90-3.41L83.90-3.41L83.90-3.41Q83.90-2.52 83.35-1.91L83.35-1.91L83.35-1.91Q82.80-1.31 81.93-1.31L81.93-1.31L81.93-1.31Q81.55-1.31 81.14-1.42L81.14-1.42L81.14-1.42Q81.78-0.49 83.17-0.49" fill="#910000" stroke="none" stroke-width="none" transform="translate(-120.2449951171875,7.055882132393964)" style="fill: rgb(195, 76, 55);"></path></g><g class="path" style="transform: scale(0.91); transform-origin: -18.395px -0.599118px; animation: 1s linear -0.408571s infinite normal forwards running breath-2a4c3aec-b075-4684-89b8-59bf469ba608;"><path d="M97.61-11.02L99.09-11.02L99.88-15.31L99.88-15.31Q102.02-15.31 103.07-15.49L103.07-15.49L103.44-15.57L103.44-15.57Q103.04-13.54 102.54-11.02L102.54-11.02L106.14-11.02L106.08-10.50L102.46-10.50L102.46-10.50Q101.01-3.02 101.01-1.48L101.01-1.48L101.01-1.48Q101.01-0.55 101.99-0.55L101.99-0.55L101.99-0.55Q102.98-0.55 103.79-1.80L103.79-1.80L103.79-1.80Q104.60-3.05 104.95-4.50L104.95-4.50L105.47-4.32L105.47-4.32Q104.40 0.26 101.04 0.26L101.04 0.26L101.04 0.26Q99.64 0.26 98.72-0.51L98.72-0.51L98.72-0.51Q97.79-1.28 97.79-2.65L97.79-2.65L97.79-2.65Q97.79-4.03 98.98-10.50L98.98-10.50L97.56-10.50L97.61-11.02" fill="#910000" stroke="none" stroke-width="none" transform="translate(-120.2449951171875,7.055882132393964)" style="fill: rgb(253, 127, 100);"></path></g><g class="path" style="transform: scale(0.91); transform-origin: -8.16px 1.41588px; animation: 1s linear -0.377143s infinite normal forwards running breath-2a4c3aec-b075-4684-89b8-59bf469ba608;"><path d="M107.24-9.89L106.81-10.24L106.81-10.24Q107.68-11.28 109.00-11.28L109.00-11.28L109.00-11.28Q110.32-11.28 111.04-10.61L111.04-10.61L111.04-10.61Q111.77-9.95 111.77-8.73L111.77-8.73L111.77-8.55L111.77-8.55Q113.07-11.28 115.16-11.28L115.16-11.28L115.16-11.28Q117.39-11.28 117.39-8.96L117.39-8.96L117.39-8.96Q117.39-8.00 116.75-6.93L116.75-6.93L116.75-6.93Q116.12-5.86 115.48-4.89L115.48-4.89L115.48-4.89Q114.84-3.92 114.84-3.16L114.84-3.16L114.14-3.16L114.14-3.16Q114.14-4.23 115.39-6.06L115.39-6.06L115.39-6.06Q116.64-7.89 116.64-8.89L116.64-8.89L116.64-8.89Q116.64-9.89 116.25-10.25L116.25-10.25L116.25-10.25Q115.86-10.61 115.09-10.61L115.09-10.61L115.09-10.61Q114.32-10.61 113.58-9.95L113.58-9.95L113.58-9.95Q112.84-9.28 112.35-8.27L112.35-8.27L112.35-8.27Q111.56-6.76 111.30-5.80L111.30-5.80L111.30-5.77L110.26 0L106.78 0L108.69-10.70L108.69-10.70Q107.82-10.61 107.24-9.89L107.24-9.89" fill="#910000" stroke="none" stroke-width="none" transform="translate(-120.2449951171875,7.055882132393964)" style="fill: rgb(220, 82, 82);"></path></g><g class="path" style="transform: scale(0.91); transform-origin: 4.02px 1.54588px; animation: 1s linear -0.345714s infinite normal forwards running breath-2a4c3aec-b075-4684-89b8-59bf469ba608;"><path d="M128.24 0.26L128.24 0.26L128.24 0.26Q125.69 0.26 125.45-1.97L125.45-1.97L125.45-1.97Q124.18 0.26 122.24 0.26L122.24 0.26L122.24 0.26Q120.29 0.26 119.15-0.91L119.15-0.91L119.15-0.91Q118.00-2.09 118.00-4.21L118.00-4.21L118.00-4.21Q118.00-7.51 119.63-9.40L119.63-9.40L119.63-9.40Q121.25-11.28 123.83-11.28L123.83-11.28L123.83-11.28Q125.95-11.28 126.64-9.28L126.64-9.28L126.64-9.28Q126.79-10.15 126.96-11.02L126.96-11.02L126.96-11.02Q129.11-11.02 130.15-11.19L130.15-11.19L130.53-11.28L128.53-0.32L128.53-0.32Q129.40-0.41 129.98-1.13L129.98-1.13L130.41-0.78L130.41-0.78Q129.54 0.26 128.24 0.26zM121.28-2.73L121.28-2.73Q121.28-1.42 121.61-0.91L121.61-0.91L121.61-0.91Q121.95-0.41 122.64-0.41L122.64-0.41L122.64-0.41Q123.34-0.41 124.06-1.16L124.06-1.16L124.06-1.16Q125.02-2.15 125.60-3.65L125.60-3.65L125.60-3.65Q125.69-4.03 125.93-5.47L125.93-5.47L125.93-5.47Q126.18-6.90 126.35-7.83L126.35-7.83L126.35-7.83Q126.27-8.93 125.74-9.74L125.74-9.74L125.74-9.74Q125.22-10.56 124.44-10.56L124.44-10.56L124.44-10.56Q123.02-10.56 122.15-8.02L122.15-8.02L122.15-8.02Q121.28-5.48 121.28-2.73L121.28-2.73" fill="#910000" stroke="none" stroke-width="none" transform="translate(-120.2449951171875,7.055882132393964)" style="fill: rgb(226, 138, 120);"></path></g><g class="path" style="transform: scale(0.91); transform-origin: 18.39px 1.54588px; animation: 1s linear -0.314286s infinite normal forwards running breath-2a4c3aec-b075-4684-89b8-59bf469ba608;"><path d="M143.26-0.32L143.26-0.32L143.26-0.32Q143.96-0.32 144.71-1.13L144.71-1.13L145.15-0.78L145.15-0.78Q144.94-0.38 144.25-0.06L144.25-0.06L144.25-0.06Q143.55 0.26 142.71 0.26L142.71 0.26L142.71 0.26Q140.07 0.26 140.07-2.12L140.07-2.12L140.07-2.12Q140.07-3.13 140.59-5.74L140.59-5.74L140.59-5.74Q141.11-8.35 141.11-9.16L141.11-9.16L141.11-9.16Q141.11-10.41 139.93-10.41L139.93-10.41L139.93-10.41Q138.97-10.41 138.08-9.16L138.08-9.16L138.08-9.16Q137.20-7.92 136.62-5.74L136.62-5.74L135.63-0.32L135.63-0.32Q136.53-0.41 137.11-1.13L137.11-1.13L137.55-0.78L137.55-0.78Q136.68 0.26 135.37 0.26L135.37 0.26L135.37 0.26Q134.07 0.26 133.33-0.41L133.33-0.41L133.33-0.41Q132.59-1.07 132.59-2.15L132.59-2.15L132.59-2.15Q132.59-2.55 133.05-5.34L133.05-5.34L134.01-10.70L134.01-10.70Q133.14-10.61 132.56-9.89L132.56-9.89L132.12-10.24L132.12-10.24Q132.99-11.28 134.31-11.28L134.31-11.28L134.31-11.28Q135.63-11.28 136.36-10.61L136.36-10.61L136.36-10.61Q137.08-9.95 137.08-8.73L137.08-8.73L137.08-8.55L137.08-8.55Q138.27-11.28 140.80-11.28L140.80-11.28L140.80-11.28Q142.51-11.28 143.46-10.31L143.46-10.31L143.46-10.31Q144.42-9.34 144.42-7.63L144.42-7.63L144.42-7.63Q144.42-6.73 143.87-4.16L143.87-4.16L143.87-4.16Q143.32-1.59 143.26-0.32" fill="#910000" stroke="none" stroke-width="none" transform="translate(-120.2449951171875,7.055882132393964)" style="fill: rgb(145, 0, 0);"></path></g><g class="path" style="transform: scale(0.91); transform-origin: 30.41px 0.875882px; animation: 1s linear -0.282857s infinite normal forwards running breath-2a4c3aec-b075-4684-89b8-59bf469ba608;"><path d="M149.23-0.49L149.23-0.49L149.23-0.49Q152.11-0.49 152.11-4.73L152.11-4.73L152.11-4.73Q152.11-5.77 151.80-7.19L151.80-7.19L151.80-7.19Q151.50-8.61 151.44-8.96L151.44-8.96L151.44-8.96Q149.67-7.13 147.47-6.76L147.47-6.76L147.47-7.45L147.47-7.45Q149.55-7.92 151.38-9.83L151.38-9.83L151.38-9.95L151.38-9.95Q151.38-10.64 151.58-11.31L151.58-11.31L151.58-11.31Q151.79-11.98 151.99-12.30L151.99-12.30L152.19-12.62L152.89-12.62L152.89-12.62Q152.89-11.34 153.29-10.28L153.29-10.28L153.29-10.28Q153.70-9.22 154.19-8.57L154.19-8.57L154.19-8.57Q154.69-7.92 155.09-6.86L155.09-6.86L155.09-6.86Q155.50-5.80 155.50-4.52L155.50-4.52L155.50-4.52Q155.50-2.47 153.95-1.10L153.95-1.10L153.95-1.10Q152.40 0.26 150.22 0.26L150.22 0.26L150.22 0.26Q148.05 0.26 146.93-0.73L146.93-0.73L146.93-0.73Q145.81-1.71 145.81-3.00L145.81-3.00L145.81-3.00Q145.81-4.29 146.45-4.86L146.45-4.86L146.45-4.86Q147.09-5.42 147.96-5.42L147.96-5.42L147.96-5.42Q148.83-5.42 149.39-4.86L149.39-4.86L149.39-4.86Q149.96-4.29 149.96-3.41L149.96-3.41L149.96-3.41Q149.96-2.52 149.41-1.91L149.41-1.91L149.41-1.91Q148.86-1.31 147.99-1.31L147.99-1.31L147.99-1.31Q147.61-1.31 147.20-1.42L147.20-1.42L147.20-1.42Q147.84-0.49 149.23-0.49" fill="#910000" stroke="none" stroke-width="none" transform="translate(-120.2449951171875,7.055882132393964)" style="fill: rgb(195, 76, 55);"></path></g><g class="path" style="transform: scale(0.91); transform-origin: 41.255px -1.32412px; animation: 1s linear -0.251429s infinite normal forwards running breath-2a4c3aec-b075-4684-89b8-59bf469ba608;"><path d="M163.82-18.79L163.82-18.79L163.82-18.79Q164.87-18.79 165.55-18.01L165.55-18.01L165.55-18.01Q166.23-17.23 166.23-15.66L166.23-15.66L166.23-15.66Q166.23-14.09 164.98-11.02L164.98-11.02L166.08-11.02L166.03-10.50L164.75-10.50L164.75-10.50Q163.76-8.03 163.76-6.76L163.76-6.76L163.24-6.76L163.24-6.76Q163.24-8.27 164.20-10.50L164.20-10.50L162.52-10.50L162.52-10.50Q161.65-5.95 160.28 2.03L160.28 2.03L156.77 2.03L159.01-10.50L157.24-10.50L157.30-11.02L159.09-11.02L159.56-13.51L159.56-13.51Q160.02-16.39 160.99-17.59L160.99-17.59L160.99-17.59Q161.97-18.79 163.82-18.79zM165.68-15.72L165.68-15.72L165.68-15.72Q165.68-16.76 165.20-17.52L165.20-17.52L165.20-17.52Q164.72-18.27 164.02-18.27L164.02-18.27L164.02-18.27Q163.73-17.14 162.60-11.02L162.60-11.02L164.40-11.02L164.40-11.02Q165.68-13.92 165.68-15.72" fill="#910000" stroke="none" stroke-width="none" transform="translate(-120.2449951171875,7.055882132393964)" style="fill: rgb(253, 127, 100);"></path></g><g class="path" style="transform: scale(0.91); transform-origin: 50.565px 1.54588px; animation: 1s linear -0.22s infinite normal forwards running breath-2a4c3aec-b075-4684-89b8-59bf469ba608;"><path d="M172.09-11.28L172.09-11.28L172.09-11.28Q175.77-11.28 175.77-8.35L175.77-8.35L175.77-8.35Q175.77-6.53 174.04-5.58L174.04-5.58L174.04-5.58Q172.32-4.64 169.13-4.61L169.13-4.61L169.13-4.61Q169.07-3.57 169.07-2.96L169.07-2.96L169.07-2.96Q169.07-1.65 169.66-1.03L169.66-1.03L169.66-1.03Q170.26-0.41 171.16-0.41L171.16-0.41L171.16-0.41Q172.06-0.41 172.80-0.75L172.80-0.75L172.80-0.75Q173.54-1.10 173.97-1.58L173.97-1.58L173.97-1.58Q174.41-2.06 174.73-2.58L174.73-2.58L174.73-2.58Q175.31-3.54 175.31-3.80L175.31-3.80L175.83-3.57L175.83-3.57Q175.74-3.10 175.31-2.33L175.31-2.33L175.31-2.33Q174.87-1.57 174.35-1.07L174.35-1.07L174.35-1.07Q173.83-0.58 172.81-0.16L172.81-0.16L172.81-0.16Q171.80 0.26 170.55 0.26L170.55 0.26L170.55 0.26Q168.20 0.26 167.00-0.86L167.00-0.86L167.00-0.86Q165.79-1.97 165.79-3.92L165.79-3.92L165.79-3.92Q165.79-7.37 167.50-9.32L167.50-9.32L167.50-9.32Q169.22-11.28 172.09-11.28zM175.04-8.35L175.04-8.35Q175.04-9.31 174.48-9.93L174.48-9.93L174.48-9.93Q173.91-10.56 172.80-10.56L172.80-10.56L172.80-10.56Q171.68-10.56 170.62-9.22L170.62-9.22L170.62-9.22Q169.56-7.89 169.22-5.28L169.22-5.28L169.22-5.28Q175.04-5.31 175.04-8.35L175.04-8.35" fill="#910000" stroke="none" stroke-width="none" transform="translate(-120.2449951171875,7.055882132393964)" style="fill: rgb(220, 82, 82);"></path></g><g class="path" style="transform: scale(0.91); transform-origin: 62.54px 1.41588px; animation: 1s linear -0.188571s infinite normal forwards running breath-2a4c3aec-b075-4684-89b8-59bf469ba608;"><path d="M177.94-9.89L177.51-10.24L177.51-10.24Q178.38-11.28 179.70-11.28L179.70-11.28L179.70-11.28Q181.02-11.28 181.74-10.61L181.74-10.61L181.74-10.61Q182.47-9.95 182.47-8.73L182.47-8.73L182.47-8.55L182.47-8.55Q183.77-11.28 185.86-11.28L185.86-11.28L185.86-11.28Q188.09-11.28 188.09-8.96L188.09-8.96L188.09-8.96Q188.09-8.00 187.46-6.93L187.46-6.93L187.46-6.93Q186.82-5.86 186.18-4.89L186.18-4.89L186.18-4.89Q185.54-3.92 185.54-3.16L185.54-3.16L184.85-3.16L184.85-3.16Q184.85-4.23 186.09-6.06L186.09-6.06L186.09-6.06Q187.34-7.89 187.34-8.89L187.34-8.89L187.34-8.89Q187.34-9.89 186.95-10.25L186.95-10.25L186.95-10.25Q186.56-10.61 185.79-10.61L185.79-10.61L185.79-10.61Q185.02-10.61 184.28-9.95L184.28-9.95L184.28-9.95Q183.54-9.28 183.05-8.27L183.05-8.27L183.05-8.27Q182.27-6.76 182.00-5.80L182.00-5.80L182.00-5.77L180.96 0L177.48 0L179.39-10.70L179.39-10.70Q178.52-10.61 177.94-9.89L177.94-9.89" fill="#910000" stroke="none" stroke-width="none" transform="translate(-120.2449951171875,7.055882132393964)" style="fill: rgb(226, 138, 120);"></path></g><g class="path" style="transform: scale(0.91); transform-origin: 73.91px 1.41588px; animation: 1s linear -0.157143s infinite normal forwards running breath-2a4c3aec-b075-4684-89b8-59bf469ba608;"><path d="M189.31-9.89L188.88-10.24L188.88-10.24Q189.75-11.28 191.07-11.28L191.07-11.28L191.07-11.28Q192.39-11.28 193.11-10.61L193.11-10.61L193.11-10.61Q193.84-9.95 193.84-8.73L193.84-8.73L193.84-8.55L193.84-8.55Q195.14-11.28 197.23-11.28L197.23-11.28L197.23-11.28Q199.46-11.28 199.46-8.96L199.46-8.96L199.46-8.96Q199.46-8.00 198.82-6.93L198.82-6.93L198.82-6.93Q198.19-5.86 197.55-4.89L197.55-4.89L197.55-4.89Q196.91-3.92 196.91-3.16L196.91-3.16L196.21-3.16L196.21-3.16Q196.21-4.23 197.46-6.06L197.46-6.06L197.46-6.06Q198.71-7.89 198.71-8.89L198.71-8.89L198.71-8.89Q198.71-9.89 198.32-10.25L198.32-10.25L198.32-10.25Q197.93-10.61 197.16-10.61L197.16-10.61L197.16-10.61Q196.39-10.61 195.65-9.95L195.65-9.95L195.65-9.95Q194.91-9.28 194.42-8.27L194.42-8.27L194.42-8.27Q193.63-6.76 193.37-5.80L193.37-5.80L193.37-5.77L192.33 0L188.85 0L190.76-10.70L190.76-10.70Q189.89-10.61 189.31-9.89L189.31-9.89" fill="#910000" stroke="none" stroke-width="none" transform="translate(-120.2449951171875,7.055882132393964)" style="fill: rgb(145, 0, 0);"></path></g><g class="path" style="transform: scale(0.91); transform-origin: 84.815px 1.54588px; animation: 1s linear -0.125714s infinite normal forwards running breath-2a4c3aec-b075-4684-89b8-59bf469ba608;"><path d="M206.34-11.28L206.34-11.28L206.34-11.28Q210.02-11.28 210.02-8.35L210.02-8.35L210.02-8.35Q210.02-6.53 208.29-5.58L208.29-5.58L208.29-5.58Q206.57-4.64 203.38-4.61L203.38-4.61L203.38-4.61Q203.32-3.57 203.32-2.96L203.32-2.96L203.32-2.96Q203.32-1.65 203.91-1.03L203.91-1.03L203.91-1.03Q204.51-0.41 205.41-0.41L205.41-0.41L205.41-0.41Q206.31-0.41 207.05-0.75L207.05-0.75L207.05-0.75Q207.79-1.10 208.22-1.58L208.22-1.58L208.22-1.58Q208.66-2.06 208.97-2.58L208.97-2.58L208.97-2.58Q209.55-3.54 209.55-3.80L209.55-3.80L210.08-3.57L210.08-3.57Q209.99-3.10 209.55-2.33L209.55-2.33L209.55-2.33Q209.12-1.57 208.60-1.07L208.60-1.07L208.60-1.07Q208.08-0.58 207.06-0.16L207.06-0.16L207.06-0.16Q206.05 0.26 204.80 0.26L204.80 0.26L204.80 0.26Q202.45 0.26 201.25-0.86L201.25-0.86L201.25-0.86Q200.04-1.97 200.04-3.92L200.04-3.92L200.04-3.92Q200.04-7.37 201.75-9.32L201.75-9.32L201.75-9.32Q203.46-11.28 206.34-11.28zM209.29-8.35L209.29-8.35Q209.29-9.31 208.73-9.93L208.73-9.93L208.73-9.93Q208.16-10.56 207.05-10.56L207.05-10.56L207.05-10.56Q205.93-10.56 204.87-9.22L204.87-9.22L204.87-9.22Q203.81-7.89 203.46-5.28L203.46-5.28L203.46-5.28Q209.29-5.31 209.29-8.35L209.29-8.35" fill="#910000" stroke="none" stroke-width="none" transform="translate(-120.2449951171875,7.055882132393964)" style="fill: rgb(195, 76, 55);"></path></g><g class="path" style="transform: scale(0.91); transform-origin: 97.91px -2.20912px; animation: 1s linear -0.0942857s infinite normal forwards running breath-2a4c3aec-b075-4684-89b8-59bf469ba608;"><path d="M221.65 0.26L221.65 0.26L221.65 0.26Q219.10 0.26 218.86-1.91L218.86-1.91L218.86-1.91Q217.59 0.26 215.62 0.26L215.62 0.26L215.62 0.26Q213.64 0.26 212.60-0.86L212.60-0.86L212.60-0.86Q211.56-1.97 211.56-3.92L211.56-3.92L211.56-3.92Q211.56-7.34 213.18-9.31L213.18-9.31L213.18-9.31Q214.80-11.28 217.38-11.28L217.38-11.28L217.38-11.28Q218.86-11.28 219.68-10.38L219.68-10.38L219.68-10.38Q220.02-9.92 220.11-9.69L220.11-9.69L221.68-18.21L221.68-18.21Q220.81-18.13 220.23-17.40L220.23-17.40L219.79-17.75L219.79-17.75Q220.66-18.79 221.98-18.79L221.98-18.79L221.98-18.79Q223.30-18.79 224.03-18.13L224.03-18.13L224.03-18.13Q224.75-17.46 224.75-16.24L224.75-16.24L224.75-16.24Q224.75-16.01 224.69-15.49L224.69-15.49L224.69-15.49Q223.27-7.51 221.94-0.32L221.94-0.32L221.94-0.32Q222.81-0.41 223.39-1.13L223.39-1.13L223.82-0.78L223.82-0.78Q222.95 0.26 221.65 0.26zM214.83-2.73L214.83-2.73Q214.83-1.39 215.11-0.90L215.11-0.90L215.11-0.90Q215.38-0.41 215.98-0.41L215.98-0.41L215.98-0.41Q216.57-0.41 217.12-0.81L217.12-0.81L217.12-0.81Q217.67-1.22 218.05-1.86L218.05-1.86L218.05-1.86Q218.75-2.93 219.04-3.68L219.04-3.68L219.88-8.27L219.88-8.27Q219.82-9.19 219.27-9.96L219.27-9.96L219.27-9.96Q218.72-10.73 217.38-10.73L217.38-10.73L217.38-10.73Q216.46-10.73 215.64-8.00L215.64-8.00L215.64-8.00Q214.83-5.28 214.83-2.73L214.83-2.73" fill="#910000" stroke="none" stroke-width="none" transform="translate(-120.2449951171875,7.055882132393964)" style="fill: rgb(253, 127, 100);"></path></g><g class="path" style="transform: scale(0.91); transform-origin: 107.45px 5.18588px; animation: 1s linear -0.0628571s infinite normal forwards running breath-2a4c3aec-b075-4684-89b8-59bf469ba608;"><path d="M226.20-0.38L226.20-0.38L226.20-0.38Q225.59-0.99 225.59-1.86L225.59-1.86L225.59-1.86Q225.59-2.73 226.20-3.35L226.20-3.35L226.20-3.35Q226.81-3.97 227.68-3.97L227.68-3.97L227.68-3.97Q228.55-3.97 229.17-3.35L229.17-3.35L229.17-3.35Q229.80-2.73 229.80-1.86L229.80-1.86L229.80-1.86Q229.80-0.99 229.17-0.38L229.17-0.38L229.17-0.38Q228.55 0.23 227.68 0.23L227.68 0.23L227.68 0.23Q226.81 0.23 226.20-0.38" fill="#910000" stroke="none" stroke-width="none" transform="translate(-120.2449951171875,7.055882132393964)" style="fill: rgb(220, 82, 82);"></path></g><g class="path" style="transform: scale(0.91); transform-origin: 114.32px 5.18588px; animation: 1s linear -0.0314286s infinite normal forwards running breath-2a4c3aec-b075-4684-89b8-59bf469ba608;"><path d="M233.07-0.38L233.07-0.38L233.07-0.38Q232.46-0.99 232.46-1.86L232.46-1.86L232.46-1.86Q232.46-2.73 233.07-3.35L233.07-3.35L233.07-3.35Q233.68-3.97 234.55-3.97L234.55-3.97L234.55-3.97Q235.42-3.97 236.05-3.35L236.05-3.35L236.05-3.35Q236.67-2.73 236.67-1.86L236.67-1.86L236.67-1.86Q236.67-0.99 236.05-0.38L236.05-0.38L236.05-0.38Q235.42 0.23 234.55 0.23L234.55 0.23L234.55 0.23Q233.68 0.23 233.07-0.38" fill="#910000" stroke="none" stroke-width="none" transform="translate(-120.2449951171875,7.055882132393964)" style="fill: rgb(226, 138, 120);"></path></g><g class="path" style="transform: scale(0.91); transform-origin: 121.195px 5.18588px; animation: 1s linear 0s infinite normal forwards running breath-2a4c3aec-b075-4684-89b8-59bf469ba608;"><path d="M239.95-0.38L239.95-0.38L239.95-0.38Q239.34-0.99 239.34-1.86L239.34-1.86L239.34-1.86Q239.34-2.73 239.95-3.35L239.95-3.35L239.95-3.35Q240.56-3.97 241.43-3.97L241.43-3.97L241.43-3.97Q242.30-3.97 242.92-3.35L242.92-3.35L242.92-3.35Q243.54-2.73 243.54-1.86L243.54-1.86L243.54-1.86Q243.54-0.99 242.92-0.38L242.92-0.38L242.92-0.38Q242.30 0.23 241.43 0.23L241.43 0.23L241.43 0.23Q240.56 0.23 239.95-0.38" fill="#910000" stroke="none" stroke-width="none" transform="translate(-120.2449951171875,7.055882132393964)" style="fill: rgb(145, 0, 0);"></path></g></g>
</g>
</g>
<style id="breath-2a4c3aec-b075-4684-89b8-59bf469ba608" data-anikit="">@keyframes breath-2a4c3aec-b075-4684-89b8-59bf469ba608
{
  0% {
    animation-timing-function: cubic-bezier(0.9647,0.2413,-0.0705,0.7911);
    transform: scale(0.9099999999999999);
  }
  51% {
    animation-timing-function: cubic-bezier(0.9226,0.2631,-0.0308,0.7628);
    transform: scale(1.02994);
  }
  100% {
    transform: scale(0.9099999999999999);
  }
}</style></svg>